# xmcd
#
# Track frame offsets:
#	150
#	16753
#	33131
#	50857
#	60677
#	73001
#	85959
#	98209
#	110658
#	123884
#	136216
#	148992
#
# Disc length: 2173 seconds
#
# Revision: 1
# Processed by: cddbd v1.4b41PL2 Copyright (c) Steve Scherf et al.
# Submitted via: audiograbber 1.80
#
DISCID=aa087b0c
DTITLE=Merle Haggard - 12 #1 Hits
DYEAR=1900
DGENRE=
TTITLE0=Daddy Frank (the guitar man)
TTITLE1=Hungy Eyes
TTITLE2=I Think I'll Just Stay Here And Drink
TTITLE3=Mamma Tried
TTITLE4=Okie From Muskogee
TTITLE5=The Fightin' Side Of Me
TTITLE6=Workin' Man Blues
TTITLE7=If We Make It Through December
TTITLE8=Kentucky Gambler
TTITLE9=Everybody's Had The Blues
TTITLE10=Sing Me Back Home
TTITLE11=Always Wanting You
EXTD=
EXTT0=
EXTT1=
EXTT2=
EXTT3=
EXTT4=
EXTT5=
EXTT6=
EXTT7=
EXTT8=
EXTT9=
EXTT10=
EXTT11=
PLAYORDER=
